# xmcd
# 
# Track frame offsets:
#	150
#	19490
#	36007
#	57560
#	73790
#	92512
#	113240
#	135867
#	152152
#	172735
#	192107
#	208560
#	222285
#
# Disc length: 3208 seconds
#
# Revision: 1
# Processed by: cddbd v1.4PL0 Copyright (c) Steve Scherf et al.
# Submitted via: Audio-CD-Archiv 2.10.438
#
DISCID=b00c860d
DTITLE=Calvin Russell - Rebel Radio
DYEAR=1900
DGENRE=country
TTITLE0=Still Lookin' For You
TTITLE1=Barroom Girls
TTITLE2=Shadow Of Doubt
TTITLE3=It Is What It Is
TTITLE4=I'll Be Here In The Morning
TTITLE5=Country Boy
TTITLE6=No Expectations
TTITLE7=Ain't Leavin' Your Love
TTITLE8=I Never Cared For You
TTITLE9=Freight Train Blues
TTITLE10=Pass You By
TTITLE11=Wild Rose
TTITLE12=Nothin' Is
EXTD=
EXTT0=
EXTT1=
EXTT2=
EXTT3=
EXTT4=
EXTT5=
EXTT6=
EXTT7=
EXTT8=
EXTT9=
EXTT10=
EXTT11=
EXTT12=
PLAYORDER=
